<?xml version="1.0" encoding="utf-8"?>
<!-- Generator: Adobe Illustrator 26.3.1, SVG Export Plug-In . SVG Version: 6.00 Build 0)  -->
<svg version="1.1" id="Camada_2_00000119832898857732580690000004261776704345471422_"
	 xmlns="http://www.w3.org/2000/svg" xmlns:xlink="http://www.w3.org/1999/xlink" x="0px" y="0px" viewBox="0 0 640 640"
	 style="enable-background:new 0 0 640 640;" xml:space="preserve">
<style type="text/css">
	.st0{fill:#222222;}
</style>
<g id="Camada_1-2">
	<path class="st0" d="M428,320c0-60-48-108-108-108s-108,48-108,108s48,108,108,108S428,380,428,320z M484,320c0,92-72,164-164,164
		s-164-72-164-164s72-164,164-164S484,228,484,320L484,320z M528,148c0,24-16,40-40,40s-40-16-40-40s16-40,40-40S528,128,528,148z
		 M320,56c-48,0-148-4-188,12c-28,12-52,36-60,64c-16,40-12,140-12,188s-4,148,12,188c8,28,32,52,60,60c40,16,144,12,188,12
		s148,4,188-12c28-12,48-32,60-60c16-44,12-144,12-188s4-148-12-188c-8-28-32-52-60-60C468,52,368,56,320,56L320,56z M640,320v132
		c0,48-16,96-52,136c-36,36-84,52-136,52H188c-48,0-96-16-136-52C20,552,0,504,0,452V188C0,136,20,88,52,52C92,20,140,0,188,0h264
		c48,0,96,16,136,52c32,36,52,84,52,136V320L640,320z"/>
</g>
</svg>
