<?xml version="1.0" encoding="UTF-8"?><svg id="Camada_2" xmlns="http://www.w3.org/2000/svg" viewBox="0 0 694.2 88.15"><defs><style>.cls-1{fill:aqua;}.cls-2{fill:#222;}.cls-3{opacity:.48;}.cls-4{fill:#f0f;}</style></defs><g id="Camada_1-2"><g class="cls-3"><g><path class="cls-4" d="M635.05,8.24l-8.45,24.87h2.46l8.45-24.87h-2.46Z"/><path class="cls-4" d="M649.71,26.38l-2,6.27,.89,2.8h-3.35l6.29,19.7h4l-7.03-22.04h3.35l-2.15-6.73Z"/><path class="cls-4" d="M644.22,33.11l-.75,2.34h.84l.74-2.34h-.83Z"/><path class="cls-4" d="M622.45,35.44l-8,23.52h3.35l-9.39,27.62h19.58l.75-2.34h-17.08l9.39-27.62h-3.35l7.2-21.18h-2.46Z"/><path class="cls-4" d="M635.16,71.93l-.74,2.34h26.59l3.92,12.31h19.59l-.8-2.34h-15.54l-3.92-12.31h-29.1Z"/><path class="cls-1" d="M640.68,4.29l-9.25,27.21h-3.35l-8,23.52h3.35l-9.39,27.62h19.59l3.91-12.31h29.1l3.91,12.31h19.59l-9.39-27.62h-3.35l-8-23.52h3.35l-9.25-27.21h-22.83Zm11.42,20.48l2.14,6.73h-3.34l7.03,22.04h-18.35l7.03-22.04h3.35l2.15-6.73Z"/><path class="cls-2" d="M644.73,1.57l-9.25,27.2h-3.35l-7.99,23.52h3.34l-9.39,27.61h19.58l3.92-12.31h29.1l3.92,12.31h19.58l-9.39-27.61h-3.34l-8-23.52h3.35l-9.25-27.2h-22.83Zm11.42,20.48l2.15,6.72h-3.35l7.03,22.04h-18.35l7.03-22.04h3.35l2.15-6.72Z"/></g><g><rect class="cls-4" x="557.67" y="8.24" width="3.25" height="24.87"/><rect class="cls-4" x="575.48" y="33.11" width=".09" height="2.34"/><path class="cls-4" d="M554.32,35.44v23.52h3.35v27.62h45.88v-2.34h-42.63v-27.62h-3.34v-21.18h-3.25Z"/><path class="cls-1" d="M563.3,4.29V31.5h-3.35v23.52h3.35v27.62h45.88v-17.24h-27.98v-10.38h-3.35V31.5h3.35V4.29h-17.91Z"/><path class="cls-2" d="M567.35,1.57V28.77h-3.35v23.52h3.35v27.61h45.88v-17.23h-27.98v-10.38h-3.35V28.77h3.35V1.57h-17.91Z"/></g><g><rect class="cls-4" x="504.36" y="8.24" width="3.25" height="24.87"/><rect class="cls-4" x="522.18" y="33.11" width=".09" height="2.34"/><path class="cls-4" d="M501.02,35.44v23.52h3.35v27.62h45.88v-2.34h-42.63v-27.62h-3.34v-21.18h-3.25Z"/><path class="cls-1" d="M509.99,4.29V31.5h-3.35v23.52h3.35v27.62h45.88v-17.24h-27.98v-10.38h-3.35V31.5h3.35V4.29h-17.91Z"/><path class="cls-2" d="M514.05,1.57V28.77h-3.35v23.52h3.35v27.61h45.88v-17.23h-27.98v-10.38h-3.35V28.77h3.35V1.57h-17.91Z"/></g><g><rect class="cls-4" x="430.33" y="33.11" width=".09" height="2.34"/><rect class="cls-4" x="370.57" y="8.24" width="3.25" height="24.87"/><rect class="cls-4" x="413.09" y="8.24" width="3.25" height="24.87"/><rect class="cls-4" x="388.38" y="33.11" width=".09" height="2.34"/><path class="cls-4" d="M367.22,35.44v23.52h3.35v27.62h17.9v-2.34h-14.65v-27.62h-3.35v-21.18h-3.25Z"/><rect class="cls-4" x="409.75" y="35.44" width="3.25" height=".45"/><path class="cls-4" d="M388.38,53.13v2.34h21.37v3.49h3.34v27.62h17.91v-2.34h-14.66v-27.62h-3.34v-3.49h-24.62Z"/><path class="cls-1" d="M376.2,4.29V31.5h-3.35v23.52h3.35v27.62h17.91v-27.62h-3.35v-3.49h24.62v3.49h3.35v27.62h17.91v-27.62h-3.35V31.5h3.35V4.29h-17.91V31.5h-3.35v2.79h-24.62v-2.79h3.35V4.29h-17.91Z"/><path class="cls-2" d="M380.25,1.57V28.77h-3.35v23.52h3.35v27.61h17.91v-27.61h-3.34v-3.5h24.62v3.5h3.35v27.61h17.91v-27.61h-3.35V28.77h3.35V1.57h-17.91V28.77h-3.35v2.79h-24.62v-2.79h3.34V1.57h-17.91Z"/></g><g><path class="cls-4" d="M339.06,21.79c-6.34,0-11.65,1.94-15.55,5.39,3.42-1.97,7.58-3.05,12.3-3.05,7.94,0,14.66,3.58,18.13,9.63l15.45-8.95c-.07-.11-.14-.22-.22-.33l-11.98,6.95c-3.47-6.05-10.19-9.63-18.13-9.63h0Z"/><path class="cls-4" d="M293.36,35.44c-1.07,3.76-1.64,7.77-1.64,11.96s.53,7.91,1.52,11.55h3.35c4.68,17.15,19.73,29.18,39.22,29.18,9.61,0,18.41-3.18,25.19-8.61-6.24,4-13.8,6.27-21.94,6.27-19.48,0-34.54-12.03-39.22-29.18h-3.35c-1-3.64-1.52-7.51-1.52-11.55,0-3.33,.37-6.55,1.05-9.63h-2.67Z"/><path class="cls-4" d="M353.94,61.06c-.94,1.68-2.14,3.17-3.56,4.45,1.79-1.02,3.37-2.29,4.69-3.8l-1.13-.65Z"/><path class="cls-1" d="M341.44,2.73c-19.32,0-34.29,11.84-39.1,28.77h-3.35c-1.07,3.76-1.64,7.77-1.64,11.96s.53,7.91,1.52,11.55h3.35c4.68,17.15,19.74,29.18,39.22,29.18,14.32,0,26.86-7.05,33.58-18.13l-15.45-8.95c-3.36,6.05-10.18,9.63-18.13,9.63-9.56,0-16.78-4.41-20.35-11.73h-3.35c-1.61-3.3-2.48-7.2-2.48-11.55s.95-8.57,2.69-11.96h3.35c3.64-7.07,10.76-11.31,20.14-11.31,7.95,0,14.66,3.58,18.13,9.63l15.45-8.95c-6.83-11.08-19.36-18.13-33.58-18.13h0Z"/><path class="cls-4" d="M313.14,13.09c-7.28,4.68-12.76,11.65-15.69,20.01h2.5c2.29-8.07,6.9-14.99,13.18-20.01h0Z"/><path class="cls-4" d="M315.58,33.11c-.39,.75-.73,1.53-1.03,2.34h1.13c.42-.82,.89-1.6,1.41-2.34h-1.5Z"/><path class="cls-2" d="M345.49,0c-19.32,0-34.29,11.84-39.1,28.77h-3.35c-1.07,3.76-1.64,7.78-1.64,11.97s.53,7.91,1.52,11.55h3.34c4.68,17.15,19.74,29.18,39.22,29.18,14.33,0,26.86-7.05,33.58-18.13l-15.45-8.95c-3.36,6.05-10.18,9.63-18.13,9.63-9.56,0-16.78-4.41-20.35-11.72h-3.35c-1.61-3.31-2.48-7.2-2.48-11.55s.95-8.58,2.69-11.97h3.35c3.63-7.06,10.76-11.31,20.13-11.31,7.95,0,14.66,3.58,18.13,9.63l15.45-8.95c-6.83-11.08-19.36-18.13-33.58-18.13h0Z"/></g><g><rect class="cls-4" x="444.09" y="8.24" width="3.25" height="24.87"/><rect class="cls-4" x="465.25" y="23.13" width="27.52" height="2.34"/><rect class="cls-4" x="461.9" y="33.11" width=".09" height="2.34"/><path class="cls-4" d="M440.75,35.44v23.52h3.35v27.62h49.24v-2.34h-45.99v-27.62h-3.35v-21.18h-3.25Z"/><rect class="cls-4" x="461.9" y="53.13" width="24.73" height="2.34"/><path class="cls-1" d="M449.72,4.29V31.5h-3.35v23.52h3.35v27.62h49.24v-17.24h-31.34v-10.38h-3.35v-3.49h27.98v-17.01h-27.98v-3.01h3.35v-9.97h30.78V4.29h-48.68Z"/><path class="cls-2" d="M453.78,1.57V28.77h-3.34v23.52h3.34v27.61h49.24v-17.23h-31.34v-10.38h-3.34v-3.5h27.97V31.79h-27.97v-3.02h3.34v-9.97h30.78V1.57h-48.69Z"/></g><g><rect class="cls-4" x="243.14" y="8.24" width="3.25" height="24.87"/><rect class="cls-4" x="264.3" y="23.13" width="27.52" height="2.34"/><rect class="cls-4" x="260.95" y="33.11" width=".09" height="2.34"/><path class="cls-4" d="M239.79,35.44v23.52h3.35v27.62h49.24v-2.34h-45.99v-27.62h-3.35v-21.18h-3.25Z"/><rect class="cls-4" x="260.95" y="53.13" width="24.73" height="2.34"/><path class="cls-1" d="M248.77,4.29V31.5h-3.35v23.52h3.35v27.62h49.24v-17.24h-31.34v-10.38h-3.35v-3.49h27.98v-17.01h-27.98v-3.01h3.35v-9.97h30.78V4.29h-48.68Z"/><path class="cls-2" d="M252.82,1.57V28.77h-3.34v23.52h3.34v27.61h49.24v-17.23h-31.34v-10.38h-3.34v-3.5h27.97V31.79h-27.97v-3.02h3.34v-9.97h30.78V1.57h-48.69Z"/><rect class="cls-4" x="163.9" y="8.24" width="3.25" height="24.87"/><path class="cls-4" d="M185.06,23.13v2.34h10.18c8.07,0,14.51,3.66,17.99,9.97h-3.35c1.82,3.31,2.82,7.34,2.82,11.96s-.93,8.32-2.61,11.55h3.34c-1.08,2.08-2.47,3.88-4.14,5.37,3.14-1.78,5.66-4.39,7.39-7.71h-3.35c1.68-3.23,2.62-7.12,2.62-11.55s-1.01-8.66-2.82-11.96h3.35c-3.47-6.31-9.91-9.97-17.99-9.97h-13.43Z"/><rect class="cls-4" x="181.72" y="33.11" width=".09" height="2.34"/><path class="cls-4" d="M160.56,35.44v23.52h3.35v27.62h31.34c9.11,0,17.3-3.04,23.73-8.2-5.85,3.73-12.83,5.86-20.48,5.86h-31.33v-27.62h-3.35v-21.18h-3.25Z"/><path class="cls-1" d="M169.53,4.29V31.5h-3.35v23.52h3.35v27.62h31.34c17.65,0,31.86-11.37,36.47-27.62h-3.35c1.03-3.63,1.58-7.5,1.58-11.55s-.59-8.22-1.7-11.96h3.35c-4.73-16.03-18.85-27.21-36.35-27.21h-31.34Zm17.91,17.23h13.43c8.08,0,14.51,3.66,17.99,9.97h-3.35c1.82,3.31,2.82,7.34,2.82,11.96s-.93,8.32-2.61,11.55h3.34c-3.41,6.56-9.95,10.38-18.2,10.38h-13.43v-10.38h-3.35V31.5h3.35v-9.97Z"/><path class="cls-2" d="M173.59,1.57V28.77h-3.35v23.52h3.35v27.61h31.34c17.66,0,31.87-11.36,36.47-27.61h-3.34c1.03-3.63,1.58-7.51,1.58-11.55s-.59-8.22-1.7-11.97h3.35c-4.72-16.03-18.84-27.2-36.35-27.2h-31.34Zm17.91,17.24h13.43c8.08,0,14.51,3.66,17.99,9.97h-3.35c1.82,3.31,2.83,7.35,2.83,11.97s-.93,8.32-2.62,11.55h3.35c-3.42,6.56-9.95,10.38-18.2,10.38h-13.43v-10.38h-3.34V28.77h3.34v-9.97Z"/></g><g><path class="cls-4" d="M94.4,13.2c-7.23,4.67-12.86,11.6-15.9,19.91h2.47c2.39-8.02,7.14-14.89,13.43-19.91h0Z"/><path class="cls-4" d="M119.99,21.79c-5.88,0-11.19,1.98-15.2,5.47,3.46-2.02,7.54-3.14,11.95-3.14,8.62,0,16.01,4.25,19.9,11.31h-3.35c1.87,3.39,2.93,7.43,2.93,11.96s-.98,8.25-2.7,11.55h3.34c-1.26,2.42-2.94,4.53-4.93,6.26,3.45-2.02,6.28-4.94,8.19-8.6h-3.35c1.73-3.3,2.71-7.2,2.71-11.55s-1.06-8.57-2.93-11.96h3.35c-3.89-7.07-11.28-11.31-19.9-11.31h0Z"/><path class="cls-4" d="M96.74,33.11c-.41,.75-.78,1.53-1.11,2.34h1.21c.45-.82,.95-1.6,1.49-2.34h-1.58Z"/><path class="cls-4" d="M74.37,35.44c-1.12,3.76-1.73,7.77-1.73,11.96s.57,7.91,1.61,11.55h3.34c4.92,17.15,20.58,29.18,39.13,29.18,9.67,0,18.55-3.27,25.54-8.84-6.41,4.13-14.06,6.5-22.29,6.5-18.55,0-34.21-12.03-39.13-29.18h-3.35c-1.04-3.64-1.61-7.51-1.61-11.55,0-3.33,.39-6.55,1.11-9.63h-2.64Z"/><path class="cls-1" d="M122.36,2.73c-18.41,0-33.96,11.84-39.01,28.77h-3.34c-1.12,3.76-1.73,7.77-1.73,11.96s.56,7.91,1.61,11.55h3.34c4.92,17.15,20.58,29.18,39.13,29.18s34.21-12.03,39.13-29.18h-3.35c1.04-3.64,1.61-7.51,1.61-11.55s-.6-8.2-1.73-11.96h3.35c-5.05-16.93-20.6-28.77-39.01-28.77h0Zm0,17.46c8.62,0,16.01,4.24,19.9,11.31h-3.35c1.87,3.39,2.93,7.43,2.93,11.96s-.98,8.25-2.7,11.55h3.35c-3.83,7.32-11.34,11.73-20.13,11.73s-16.3-4.41-20.13-11.73h-3.35c-1.73-3.3-2.7-7.2-2.7-11.55s1.06-8.57,2.93-11.96h3.35c3.89-7.07,11.28-11.31,19.9-11.31h0Z"/><path class="cls-2" d="M126.42,0c-18.4,0-33.96,11.84-39.01,28.77h-3.35c-1.12,3.76-1.73,7.78-1.73,11.97s.56,7.91,1.6,11.55h3.35c4.92,17.15,20.57,29.18,39.13,29.18s34.21-12.03,39.13-29.18h-3.35c1.04-3.64,1.61-7.52,1.61-11.55s-.6-8.21-1.73-11.97h3.35C160.38,11.84,144.82,0,126.42,0h0Zm0,17.46c8.62,0,16.01,4.25,19.9,11.31h-3.35c1.87,3.39,2.93,7.43,2.93,11.97s-.98,8.25-2.7,11.55h3.35c-3.82,7.31-11.34,11.72-20.13,11.72s-16.3-4.41-20.13-11.72h-3.35c-1.73-3.31-2.7-7.2-2.7-11.55s1.06-8.58,2.93-11.97h3.34c3.89-7.06,11.28-11.31,19.9-11.31h0Z"/></g><g><path class="cls-4" d="M47.34,21.79c-6.34,0-11.65,1.94-15.55,5.39,3.42-1.97,7.58-3.05,12.3-3.05,7.94,0,14.66,3.58,18.13,9.63l15.45-8.95c-.07-.11-.14-.22-.22-.33l-11.98,6.95c-3.47-6.05-10.19-9.63-18.13-9.63h0Z"/><path class="cls-4" d="M1.64,35.44c-1.07,3.76-1.64,7.77-1.64,11.96s.53,7.91,1.52,11.55h3.35c4.68,17.15,19.73,29.18,39.22,29.18,9.61,0,18.41-3.18,25.19-8.61-6.24,4-13.8,6.27-21.94,6.27-19.48,0-34.54-12.03-39.22-29.18h-3.35c-1-3.64-1.52-7.51-1.52-11.55,0-3.33,.37-6.55,1.05-9.63H1.64Z"/><path class="cls-4" d="M62.21,61.06c-.94,1.68-2.14,3.17-3.56,4.45,1.79-1.02,3.37-2.29,4.69-3.8l-1.13-.65Z"/><path class="cls-1" d="M49.71,2.73C30.39,2.73,15.42,14.56,10.62,31.5h-3.35c-1.07,3.76-1.64,7.77-1.64,11.96s.53,7.91,1.52,11.55h3.35c4.68,17.15,19.74,29.18,39.22,29.18,14.32,0,26.86-7.05,33.58-18.13l-15.45-8.95c-3.36,6.05-10.18,9.63-18.13,9.63-9.56,0-16.78-4.41-20.35-11.73h-3.35c-1.61-3.3-2.48-7.2-2.48-11.55s.95-8.57,2.69-11.96h3.35c3.64-7.07,10.76-11.31,20.14-11.31,7.95,0,14.66,3.58,18.13,9.63l15.45-8.95C76.46,9.78,63.93,2.73,49.71,2.73h0Z"/><path class="cls-4" d="M21.42,13.09c-7.28,4.68-12.76,11.65-15.69,20.01h2.5c2.29-8.07,6.9-14.99,13.18-20.01h0Z"/><path class="cls-4" d="M23.85,33.11c-.39,.75-.73,1.53-1.03,2.34h1.13c.42-.82,.89-1.6,1.41-2.34h-1.5Z"/><path class="cls-2" d="M53.77,0C34.45,0,19.48,11.84,14.67,28.77h-3.35c-1.07,3.76-1.64,7.78-1.64,11.97s.53,7.91,1.52,11.55h3.34c4.68,17.15,19.74,29.18,39.22,29.18,14.33,0,26.86-7.05,33.58-18.13l-15.45-8.95c-3.36,6.05-10.18,9.63-18.13,9.63-9.56,0-16.78-4.41-20.35-11.72h-3.35c-1.61-3.31-2.48-7.2-2.48-11.55s.95-8.58,2.69-11.97h3.35c3.63-7.06,10.76-11.31,20.13-11.31,7.95,0,14.66,3.58,18.13,9.63l15.45-8.95C80.52,7.05,67.99,0,53.77,0h0Z"/></g></g><path class="cls-2" d="M640.47,2.89l-9.39,27.61h-3.39l-8.11,23.86h3.4l-9.53,28.03h19.87l3.98-12.49h29.53l3.98,12.49h19.87l-9.53-28.03h-3.39l-8.11-23.86h3.4l-9.39-27.61h-23.17Zm11.58,20.78l2.18,6.83h-3.4l7.13,22.36h-18.63l7.13-22.36h3.4l2.18-6.83Z"/><path class="cls-2" d="M125.57,1.31c-18.55,0-34.23,11.93-39.32,29h-3.37c-1.13,3.79-1.74,7.84-1.74,12.06s.57,7.98,1.62,11.65h3.38c4.96,17.29,20.74,29.42,39.45,29.42s34.49-12.13,39.45-29.42h-3.38c1.05-3.67,1.62-7.58,1.62-11.65s-.61-8.27-1.74-12.06h3.37C159.8,13.24,144.12,1.31,125.57,1.31h0Zm0,17.6c8.69,0,16.14,4.28,20.06,11.41h-3.38c1.88,3.42,2.95,7.49,2.95,12.06s-.98,8.32-2.72,11.65h3.37c-3.86,7.37-11.43,11.82-20.29,11.82s-16.43-4.45-20.29-11.82h-3.37c-1.74-3.33-2.73-7.26-2.73-11.65s1.07-8.64,2.95-12.06h3.37c3.92-7.12,11.37-11.41,20.06-11.41h0Z"/><path class="cls-2" d="M509.28,2.89V30.31h-3.37v23.71h3.37v27.84h46.26v-17.38h-28.21v-10.46h-3.37V30.31h3.37V2.89h-18.05Z"/><path class="cls-2" d="M562.99,2.89V30.31h-3.37v23.71h3.37v27.84h46.26v-17.38h-28.21v-10.46h-3.37V30.31h3.37V2.89h-18.05Z"/><path class="cls-2" d="M383.81,2.89V30.31h-3.37v23.71h3.37v27.84h18.05v-27.84h-3.37v-3.52h24.82v3.52h3.37v27.84h18.05v-27.84h-3.37V30.31h3.37V2.89h-18.05V30.31h-3.37v2.81h-24.82v-2.81h3.37V2.89h-18.05Z"/><path class="cls-2" d="M248.95,2.89V30.31h-3.37v23.71h3.37v27.84h49.64v-17.38h-31.59v-10.46h-3.38v-3.52h28.21v-17.15h-28.21v-3.03h3.38v-10.05h31.02V2.89h-49.07Z"/><path class="cls-2" d="M452.19,2.89V30.31h-3.37v23.71h3.37v27.84h49.64v-17.38h-31.59v-10.46h-3.38v-3.52h28.21v-17.15h-28.21v-3.03h3.38v-10.05h31.02V2.89h-49.07Z"/><path class="cls-2" d="M173.14,2.89V30.31h-3.37v23.71h3.37v27.84h31.59c17.8,0,32.12-11.46,36.76-27.84h-3.37c1.03-3.66,1.59-7.57,1.59-11.65s-.6-8.28-1.71-12.06h3.38c-4.76-16.16-19-27.43-36.65-27.43h-31.59Zm18.05,17.37h13.54c8.14,0,14.63,3.69,18.13,10.05h-3.37c1.84,3.34,2.85,7.4,2.85,12.06s-.94,8.39-2.64,11.65h3.38c-3.45,6.61-10.03,10.46-18.35,10.46h-13.54v-10.46h-3.37V30.31h3.37v-10.05Z"/><path class="cls-2" d="M50.89,1.31C31.41,1.31,16.31,13.24,11.47,30.31h-3.37c-1.08,3.79-1.65,7.84-1.65,12.06s.53,7.98,1.53,11.65h3.37c4.72,17.29,19.9,29.42,39.54,29.42,14.44,0,27.07-7.1,33.84-18.28l-15.57-9.02c-3.38,6.09-10.27,9.7-18.27,9.7-9.64,0-16.92-4.45-20.52-11.82h-3.38c-1.63-3.33-2.5-7.26-2.5-11.65s.96-8.64,2.71-12.06h3.38c3.67-7.12,10.85-11.41,20.3-11.41,8.01,0,14.78,3.61,18.27,9.7l15.57-9.03C77.85,8.42,65.22,1.31,50.89,1.31h0Z"/><path class="cls-2" d="M343.03,1.31c-19.48,0-34.57,11.93-39.42,29h-3.37c-1.08,3.79-1.65,7.84-1.65,12.06s.53,7.98,1.53,11.65h3.37c4.72,17.29,19.9,29.42,39.54,29.42,14.44,0,27.07-7.1,33.84-18.28l-15.57-9.02c-3.38,6.09-10.27,9.7-18.27,9.7-9.64,0-16.92-4.45-20.52-11.82h-3.38c-1.63-3.33-2.5-7.26-2.5-11.65s.96-8.64,2.71-12.06h3.38c3.67-7.12,10.85-11.41,20.3-11.41,8.01,0,14.78,3.61,18.27,9.7l15.57-9.03c-6.88-11.17-19.52-18.27-33.84-18.27h0Z"/></g></svg>