<?xml version="1.0" encoding="UTF-8"?><svg id="Camada_2" xmlns="http://www.w3.org/2000/svg" viewBox="0 0 684.22 82.13"><defs><style>.cls-1{fill:#212121;}</style></defs><g id="Camada_1-2"><path class="cls-1" d="M634.03,1.58l-9.39,27.61h-3.39l-8.11,23.86h3.4l-9.53,28.03h19.87l3.98-12.49h29.53l3.98,12.49h19.87l-9.53-28.03h-3.39l-8.11-23.86h3.4l-9.39-27.61h-23.17Zm11.58,20.78l2.18,6.83h-3.4l7.13,22.36h-18.63l7.13-22.36h3.4l2.18-6.83Z"/><path class="cls-1" d="M119.12,0c-18.55,0-34.23,11.93-39.32,29h-3.37c-1.13,3.79-1.74,7.84-1.74,12.06s.57,7.98,1.62,11.65h3.38c4.96,17.29,20.74,29.42,39.45,29.42s34.49-12.13,39.45-29.42h-3.38c1.05-3.67,1.62-7.58,1.62-11.65s-.61-8.27-1.74-12.06h3.37C153.35,11.93,137.67,0,119.12,0h0Zm0,17.6c8.69,0,16.14,4.28,20.06,11.41h-3.38c1.88,3.42,2.95,7.49,2.95,12.06s-.98,8.32-2.72,11.65h3.37c-3.86,7.37-11.43,11.82-20.29,11.82s-16.43-4.45-20.29-11.82h-3.37c-1.74-3.33-2.73-7.26-2.73-11.65s1.07-8.64,2.95-12.06h3.37c3.92-7.12,11.37-11.41,20.06-11.41h0Z"/><path class="cls-1" d="M502.83,1.58V29h-3.37v23.71h3.37v27.84h46.26v-17.38h-28.21v-10.46h-3.37V29h3.37V1.58h-18.05Z"/><path class="cls-1" d="M556.54,1.58V29h-3.37v23.71h3.37v27.84h46.26v-17.38h-28.21v-10.46h-3.37V29h3.37V1.58h-18.05Z"/><path class="cls-1" d="M377.37,1.58V29h-3.37v23.71h3.37v27.84h18.05v-27.84h-3.37v-3.52h24.82v3.52h3.37v27.84h18.05v-27.84h-3.37V29h3.37V1.58h-18.05V29h-3.37v2.81h-24.82v-2.81h3.37V1.58h-18.05Z"/><path class="cls-1" d="M242.5,1.58V29h-3.37v23.71h3.37v27.84h49.64v-17.38h-31.59v-10.46h-3.38v-3.52h28.21v-17.15h-28.21v-3.03h3.38v-10.05h31.02V1.58h-49.07Z"/><path class="cls-1" d="M445.74,1.58V29h-3.37v23.71h3.37v27.84h49.64v-17.38h-31.59v-10.46h-3.38v-3.52h28.21v-17.15h-28.21v-3.03h3.38v-10.05h31.02V1.58h-49.07Z"/><path class="cls-1" d="M166.7,1.58V29h-3.37v23.71h3.37v27.84h31.59c17.8,0,32.12-11.46,36.76-27.84h-3.37c1.03-3.66,1.59-7.57,1.59-11.65s-.6-8.28-1.71-12.06h3.38c-4.76-16.16-19-27.43-36.65-27.43h-31.59Zm18.05,17.37h13.54c8.14,0,14.63,3.69,18.13,10.05h-3.37c1.84,3.34,2.85,7.4,2.85,12.06s-.94,8.39-2.64,11.65h3.38c-3.45,6.61-10.03,10.46-18.35,10.46h-13.54v-10.46h-3.37V29h3.37v-10.05Z"/><path class="cls-1" d="M44.44,0C24.96,0,9.87,11.93,5.02,29H1.65c-1.08,3.79-1.65,7.84-1.65,12.06s.53,7.98,1.53,11.65h3.37c4.72,17.29,19.9,29.42,39.54,29.42,14.44,0,27.07-7.1,33.84-18.28l-15.57-9.02c-3.38,6.09-10.27,9.7-18.27,9.7-9.64,0-16.92-4.45-20.52-11.82h-3.38c-1.63-3.33-2.5-7.26-2.5-11.65s.96-8.64,2.71-12.06h3.38c3.67-7.12,10.85-11.41,20.3-11.41,8.01,0,14.78,3.61,18.27,9.7l15.57-9.03C71.4,7.11,58.77,0,44.44,0h0Z"/><path class="cls-1" d="M336.58,0c-19.48,0-34.57,11.93-39.42,29h-3.37c-1.08,3.79-1.65,7.84-1.65,12.06s.53,7.98,1.53,11.65h3.37c4.72,17.29,19.9,29.42,39.54,29.42,14.44,0,27.07-7.1,33.84-18.28l-15.57-9.02c-3.38,6.09-10.27,9.7-18.27,9.7-9.64,0-16.92-4.45-20.52-11.82h-3.38c-1.63-3.33-2.5-7.26-2.5-11.65s.96-8.64,2.71-12.06h3.38c3.67-7.12,10.85-11.41,20.3-11.41,8.01,0,14.78,3.61,18.27,9.7l15.57-9.03c-6.88-11.17-19.52-18.27-33.84-18.27h0Z"/></g></svg>