<?xml version="1.0" encoding="utf-8"?>
<!-- Generator: Adobe Illustrator 26.3.1, SVG Export Plug-In . SVG Version: 6.00 Build 0)  -->
<svg version="1.1" id="Camada_2_00000047767113195801262310000018093537615889212320_"
	 xmlns="http://www.w3.org/2000/svg" xmlns:xlink="http://www.w3.org/1999/xlink" x="0px" y="0px" viewBox="0 0 798.4 648.9"
	 style="enable-background:new 0 0 798.4 648.9;" xml:space="preserve">
<style type="text/css">
	.st0{fill:#222222;}
</style>
<g id="Camada_1-2">
	<g id="_935ec95c421cee6d86eb22ecd12f847">
		<path class="st0" d="M716.7,161.6c0.3,7,0.5,14.1,0.5,21.2c0,216.5-164.8,466.1-466,466.1c-92.5,0-178.6-27.1-251.1-73.6
			c12.8,1.5,25.9,2.3,39.1,2.3c76.8,0,147.4-26.2,203.4-70.1c-71.7-1.3-132.2-48.7-153-113.8c10,1.9,20.3,3,30.8,3
			c14.9,0,29.4-2,43.2-5.8c-74.9-15-131.4-81.2-131.4-160.6c0-0.7,0-1.4,0-2.1c22.1,12.3,47.3,19.6,74.2,20.5
			c-44-29.4-72.9-79.5-72.9-136.4c0-30,8.1-58.2,22.2-82.3c80.8,99.1,201.5,164.3,337.6,171.1c-2.8-12-4.2-24.5-4.2-37.3
			C389,73.3,462.3,0,552.8,0c47.2,0,89.7,19.9,119.6,51.7c37.3-7.3,72.4-21,104-39.8c-12.2,38.3-38.2,70.3-72,90.6
			c33.1-4,64.7-12.8,94.1-25.8C776.5,109.6,748.7,138.5,716.7,161.6z"/>
	</g>
</g>
</svg>
