<?xml version="1.0" encoding="utf-8"?>
<!-- Generator: Adobe Illustrator 26.3.1, SVG Export Plug-In . SVG Version: 6.00 Build 0)  -->
<svg version="1.1" id="Camada_2_00000132783652782507332420000003546403920256481712_"
	 xmlns="http://www.w3.org/2000/svg" xmlns:xlink="http://www.w3.org/1999/xlink" x="0px" y="0px" viewBox="0 0 36 36"
	 style="enable-background:new 0 0 36 36;" xml:space="preserve">
<style type="text/css">
	.st0{fill:#222222;}
</style>
<g id="Camada_1-2">
	<g id="Layer_2">
		<g id="Icons">
			<g>
				<path class="st0" d="M30.8,5.2c-7-7-18.3-7-25.3,0c-3.3,3.3-5.2,7.9-5.3,12.6C0.2,21,1,24,2.6,26.8L0,36l9.5-2.5
					c2.6,1.4,5.6,2.2,8.6,2.1c9.8,0,17.8-7.9,17.9-17.7C36,13.1,34.1,8.5,30.8,5.2C30.8,5.2,30.8,5.2,30.8,5.2z M18.1,32.7
					c-2.9,0-5.7-0.8-8.1-2.4l-5.7,1.5l1.5-5.5c-1.7-2.5-2.6-5.5-2.7-8.5C3.1,9.6,9.8,2.8,18,2.8c8.2-0.1,14.9,6.6,15,14.8
					C33,25.8,26.4,32.5,18.1,32.7C18.2,32.7,18.1,32.7,18.1,32.7z"/>
				<path class="st0" d="M26.2,21.5c-1-0.5-2-1-3.1-1.5c-0.3-0.2-0.7-0.3-0.9,0.2S21,21.8,20.7,22c-0.2,0.3-0.7,0.3-0.9,0.1
					c-1.3-0.5-2.5-1.3-3.6-2.2c-1-0.9-1.8-1.9-2.5-3.1c-0.2-0.3-0.1-0.6,0.1-0.8l0,0l0.7-0.9c0.2-0.2,0.3-0.4,0.4-0.7
					c0.1-0.2,0.1-0.5,0-0.8c-0.2-0.3-1-2.4-1.4-3.3s-0.8-0.8-1-0.8h-0.9c-0.5,0-0.9,0.2-1.2,0.6c-1,0.9-1.6,2.3-1.5,3.7
					c0.1,1.7,0.8,3.3,1.8,4.6c0.3,0.3,3.2,4.8,7.6,6.7c0.8,0.4,1.7,0.7,2.6,0.9c0.9,0.3,1.9,0.4,2.8,0.2c0.9-0.1,2.7-1,3-2.1
					c0.3-1,0.4-2,0.3-2.1C26.9,21.8,26.6,21.6,26.2,21.5C26.2,21.5,26.2,21.5,26.2,21.5z"/>
			</g>
		</g>
	</g>
</g>
</svg>
