<?xml version="1.0" encoding="utf-8"?>
<!-- Generator: Adobe Illustrator 26.3.1, SVG Export Plug-In . SVG Version: 6.00 Build 0)  -->
<svg version="1.1" id="Camada_2_00000057121337648500400080000006965688508648990360_"
	 xmlns="http://www.w3.org/2000/svg" xmlns:xlink="http://www.w3.org/1999/xlink" x="0px" y="0px" viewBox="0 0 742.7 798.4"
	 style="enable-background:new 0 0 742.7 798.4;" xml:space="preserve">
<style type="text/css">
	.st0{fill:#222222;}
</style>
<g id="Camada_1-2">
	<g id="_935ec95c421cee6d86eb22ecd1368a9">
		<path class="st0" d="M25,0h71.8l46.3,142.3h4.5L191.7,0h72.4l-83,208.3v147.8h-71.3V215L25,0z M271.6,153.4
			c0-20.9,8.6-37.5,25.8-49.9c17.2-12.4,40.2-18.6,69.2-18.6c26.4,0,48,6.6,64.9,19.6c16.9,13.1,25.3,29.9,25.3,50.4v139.4
			c0,23.1-8.3,41.2-24.8,54.4c-16.5,13.1-39.3,19.7-68.3,19.7s-50.2-6.8-67-20.4c-16.7-13.6-25.1-31.8-25.1-54.8L271.6,153.4
			L271.6,153.4z M337.3,298.3c0,7.5,2.2,13.1,6.8,17.2c4.5,4,11,6,19.5,6s15.5-2,20.6-6.2c5.1-4.2,7.6-9.9,7.6-17.1v-147
			c0-5.9-2.6-10.6-7.8-14.3c-5.2-3.6-12-5.5-20.4-5.5c-7.8,0-14.1,1.8-19,5.5c-4.9,3.6-7.3,8.4-7.3,14.3L337.3,298.3L337.3,298.3
			L337.3,298.3z M690.1,89.2v269.9h-63.9v-29.8c-11.8,11-24,19.3-36.8,25.1c-12.7,5.7-25.1,8.6-37.1,8.6c-14.8,0-25.9-4-33.4-12
			c-7.5-8-11.2-20.1-11.2-36.1V89.2h63.9v206.9c0,6.4,1.3,11,4,13.9c2.7,2.9,7,4.3,13,4.3c4.7,0,10.7-1.9,17.8-5.7
			c7.2-3.8,13.8-8.6,19.8-14.5V89.2H690.1L690.1,89.2z M630.2,566.8c-3.1-3.5-8.1-5.3-15-5.3s-12.3,1.8-15.4,5.3
			c-3.1,3.5-4.7,9.3-4.7,17.4V601h39.8v-16.8C634.9,576.1,633.4,570.3,630.2,566.8L630.2,566.8z M441.4,693.3
			c3.4,1.4,7.1,2.1,10.9,2.1c5.5,0,9.5-1.3,12.2-4c2.6-2.7,3.9-7.2,3.9-13.3v-97.2c0-6.5-1.6-11.5-4.8-14.9c-3.2-3.4-7.9-5.1-14-5.1
			c-3.2,0-6.4,0.6-9.5,1.9c-3.1,1.3-6.2,3.3-9.3,5.9v117.8C434.4,689.7,438,692,441.4,693.3L441.4,693.3z M737.7,487.6
			c0-46.8-48-84.7-107.3-84.7c-84.5-2.9-170.9-4.1-259.1-3.9c-88.2-0.2-174.6,1.1-259.1,3.9C53,402.9,5,440.9,5,487.6
			c-3.6,37-5.1,74-5,111.1c-0.1,37,1.4,74.1,5,111.1c0,46.7,48,84.7,107.2,84.7c84.5,2.8,171,4.1,259.1,3.9
			c88.2,0.1,174.6-1.1,259.1-3.9c59.2,0,107.3-37.9,107.3-84.7c3.5-37,5.1-74.1,4.9-111.1C742.8,561.7,741.3,524.6,737.7,487.6
			L737.7,487.6z M160.8,723.4v2.8H110V501.8H57.6v-40.9h155.7v40.9h-52.5L160.8,723.4L160.8,723.4L160.8,723.4z M341.3,532.5v193.6
			h-45v-21.4c-8.3,7.9-17,13.9-25.9,18c-9,4.1-17.7,6.2-26.2,6.2c-10.4,0-18.3-2.9-23.5-8.6c-5.3-5.8-7.9-14.4-7.9-26V529.8h45.1
			v148.4c0,4.6,0.9,7.9,2.8,9.9c1.9,2.1,5,3.1,9.2,3.1c3.3,0,7.5-1.4,12.6-4c5-2.7,9.7-6.2,13.9-10.4v-147h45L341.3,532.5
			L341.3,532.5z M514.7,578.7v107.4c0,13.8-3.5,24.3-10.6,31.6c-7.1,7.2-17.3,10.9-30.6,10.9c-8.8,0-16.6-1.4-23.5-4.2
			c-6.9-2.8-13.3-7.2-19.3-13.1v14.9h-45.5V460.9h45.5v84.5c6.1-5.9,12.5-10.4,19.3-13.5c6.8-3.1,13.8-4.6,20.7-4.6
			c14.2,0,25.1,4.1,32.6,12.4c7.5,8.3,11.3,20.3,11.3,36.1V578.7L514.7,578.7L514.7,578.7z M681.3,584.6v49.3h-86.2v33.7
			c0,10.2,1.5,17.2,4.4,21.2c3,3.9,8,5.9,15.2,5.9s12.7-1.7,15.7-5c3-3.3,4.4-10.7,4.4-22.1v-13.5h46.4v17.3
			c0,19.8-5.6,34.8-16.9,44.8c-11.3,10.1-28.2,15-50.6,15c-20.2,0-36-5.3-47.6-16c-11.6-10.6-17.4-25.3-17.4-43.9v-89.7
			c0-16.8,6.4-30.5,19.1-41.1c12.7-10.6,29.2-15.9,49.4-15.9s36.5,4.9,47.5,14.7c11,9.8,16.6,23.9,16.6,42.3L681.3,584.6
			L681.3,584.6L681.3,584.6z"/>
	</g>
</g>
</svg>
